<svg xmlns="http://www.w3.org/2000/svg" viewBox="0 0 64 64" role="img" aria-labelledby="title desc">
  <title id="title">Tessera glossy prompt icon</title>
  <desc id="desc">Premium glossy Tokyo Night gradient badge with an illuminated terminal prompt.</desc>
  <defs>
    <radialGradient id="gloss5" cx="19" cy="10" r="58" gradientUnits="userSpaceOnUse">
      <stop offset="0" stop-color="#7dcfff"/>
      <stop offset="0.25" stop-color="#7aa2f7"/>
      <stop offset="0.58" stop-color="#bb9af7"/>
      <stop offset="0.82" stop-color="#1a1b26"/>
      <stop offset="1" stop-color="#16161e"/>
    </radialGradient>
    <linearGradient id="veil5" x1="9" y1="4" x2="55" y2="58" gradientUnits="userSpaceOnUse">
      <stop offset="0" stop-color="#ffffff" stop-opacity="0.2"/>
      <stop offset="0.36" stop-color="#ffffff" stop-opacity="0.06"/>
      <stop offset="0.74" stop-color="#05060a" stop-opacity="0.1"/>
      <stop offset="1" stop-color="#05060a" stop-opacity="0.36"/>
    </linearGradient>
    <linearGradient id="prompt5" x1="16" y1="25" x2="48" y2="42" gradientUnits="userSpaceOnUse">
      <stop offset="0" stop-color="#9ece6a"/>
      <stop offset="0.46" stop-color="#7dcfff"/>
      <stop offset="1" stop-color="#c0caf5"/>
    </linearGradient>
    <filter id="shadow5" x="-20%" y="-20%" width="140%" height="145%">
      <feDropShadow dx="0" dy="3" stdDeviation="2.4" flood-color="#02030a" flood-opacity="0.58"/>
    </filter>
    <filter id="blur5" x="-40%" y="-40%" width="180%" height="180%">
      <feGaussianBlur stdDeviation="2.1"/>
    </filter>
  </defs>
  <rect width="64" height="64" rx="8.4" fill="url(#gloss5)"/>
  <rect width="64" height="64" rx="8.4" fill="url(#veil5)"/>
  <circle cx="20" cy="15" r="15" fill="#7dcfff" opacity="0.22" filter="url(#blur5)"/>
  <circle cx="47" cy="42" r="19" fill="#bb9af7" opacity="0.2" filter="url(#blur5)"/>
  <path d="M8.2 12.1c0-2.15 1.75-3.9 3.9-3.9h39.8c2.15 0 3.9 1.75 3.9 3.9v2.2c-10.2 6.45-31.75 7-47.6 2.2v-4.4Z" fill="#fff" opacity="0.14"/>
  <path d="M12.1 51.8c13.8-3.3 30.35-13.15 43.7-30.65V51.9c0 2.15-1.75 3.9-3.9 3.9H12.1c-2.15 0-3.9-1.75-3.9-3.9v-1.05c1.2.45 2.5.75 3.9.95Z" fill="#05060a" opacity="0.18"/>
  <g filter="url(#shadow5)">
    <path d="M13.7 31.9c0-9.3 7.55-16.85 16.85-16.85h2.9c9.3 0 16.85 7.55 16.85 16.85v.2c0 9.3-7.55 16.85-16.85 16.85h-2.9c-9.3 0-16.85-7.55-16.85-16.85v-.2Z" fill="#16161e" opacity="0.55"/>
    <path d="M15 32c0-8.28 6.72-15 15-15h4c8.28 0 15 6.72 15 15s-6.72 15-15 15h-4c-8.28 0-15-6.72-15-15Z" fill="#16161e" opacity="0.82" stroke="#c0caf5" stroke-opacity="0.1"/>
    <path d="m23.35 24.8 7.1 7.2-7.1 7.2" fill="none" stroke="#05060a" stroke-width="6.7" stroke-linecap="round" stroke-linejoin="round" opacity="0.5"/>
    <path d="m23.35 24.8 7.1 7.2-7.1 7.2" fill="none" stroke="url(#prompt5)" stroke-width="4.6" stroke-linecap="round" stroke-linejoin="round"/>
    <path d="M35.4 39.25h8.4" fill="none" stroke="#05060a" stroke-width="5.2" stroke-linecap="round" opacity="0.45"/>
    <path d="M35.4 39.25h8.4" fill="none" stroke="#ff9e64" stroke-width="3.2" stroke-linecap="round"/>
  </g>
  <path d="M18.5 22.4c2.75-3.15 6.8-5.1 11.5-5.1h4c5.2 0 9.8 2.65 12.5 6.65-8.25 3.25-19.45 3.2-28 .45v-2Z" fill="#fff" opacity="0.08"/>
  <rect x="0.5" y="0.5" width="63" height="63" rx="8" fill="none" stroke="#c0caf5" stroke-opacity="0.11"/>
</svg>
