<svg xmlns="http://www.w3.org/2000/svg" width="560" height="130" viewBox="0 0 560 130">
  <defs>
    <style>
      .bg { fill: #0b0c11; }
      .tile { fill: #171923; }
      .orange { stroke: #e0af68; fill: none; stroke-width: 3; stroke-linecap: round; stroke-linejoin: round; }
    </style>
    <marker id="arrow" viewBox="0 0 10 10" refX="8" refY="5" markerWidth="6" markerHeight="6" orient="auto-start-reverse">
      <path d="M 1 1 L 9 5 L 1 9 z" fill="#e0af68"/>
    </marker>
  </defs>
  <rect class="bg" width="560" height="130"/>
  <g transform="translate(30 22)"><rect class="tile" width="64" height="64"/><path class="orange" d="M32 16 L32 48 M16 32 L48 32"/></g>
  <g transform="translate(118 22)"><rect class="tile" width="64" height="64"/><rect x="16" y="18" width="32" height="28" class="orange"/></g>
  <g transform="translate(206 22)"><rect class="tile" width="64" height="64"/><path class="orange" d="M15 48 L49 16" marker-end="url(#arrow)"/></g>
  <g transform="translate(294 22)"><rect class="tile" width="64" height="64"/><text x="23" y="45" fill="#e0af68" font="bold 34px sans-serif">T</text></g>
  <g transform="translate(382 22)"><rect class="tile" width="64" height="64"/><path class="orange" d="M13 45 C25 17 36 46 52 23"/></g>
  <g transform="translate(470 22)"><rect class="tile" width="64" height="64"/><path d="M15 36 L49 36" stroke="#e0af68" stroke-opacity="0.72" stroke-width="14" stroke-linecap="round"/></g>
</svg>
